<?xml version="1.0" encoding="UTF-8" standalone="no"?>
<!DOCTYPE svg PUBLIC "-//W3C//DTD SVG 1.1//EN"
 "http://www.w3.org/Graphics/SVG/1.1/DTD/svg11.dtd">
<!-- Generated by graphviz version 2.34.0 (20140217.0209)
 -->
<!-- Title: perl6&#45;type&#45;graph Pages: 1 -->
<svg width="633pt" height="332pt"
 viewBox="0.00 0.00 633.00 332.00" xmlns="http://www.w3.org/2000/svg" xmlns:xlink="http://www.w3.org/1999/xlink">
<g id="graph0" class="graph" transform="scale(1 1) rotate(0) translate(4 328)">
<title>perl6&#45;type&#45;graph</title>
<polygon fill="white" stroke="white" points="-4,4 -4,-328 629,-328 629,4 -4,4"/>
<!-- Numeric -->
<g id="node1" class="node"><title>Numeric</title>
<g id="a_node1"><a xlink:href="../type/Numeric.html" xlink:title="Numeric">
<ellipse fill="none" stroke="#6666ff" cx="323" cy="-234" rx="44.644" ry="18"/>
<text text-anchor="middle" x="323" y="-228.4" font-family="Times,serif" font-size="14.00" fill="#6666ff">Numeric</text>
</a>
</g>
</g>
<!-- Real -->
<g id="node2" class="node"><title>Real</title>
<g id="a_node2"><a xlink:href="../type/Real.html" xlink:title="Real">
<ellipse fill="none" stroke="#6666ff" cx="362" cy="-162" rx="28.968" ry="18"/>
<text text-anchor="middle" x="362" y="-156.4" font-family="Times,serif" font-size="14.00" fill="#6666ff">Real</text>
</a>
</g>
</g>
<!-- Real&#45;&gt;Numeric -->
<g id="edge10" class="edge"><title>Real&#45;&gt;Numeric</title>
<path fill="none" stroke="#6666ff" d="M352.955,-179.235C348.297,-187.596 342.509,-197.984 337.266,-207.394"/>
<polygon fill="#6666ff" stroke="#6666ff" points="334.077,-205.927 332.267,-216.367 340.192,-209.334 334.077,-205.927"/>
</g>
<!-- Mu -->
<g id="node3" class="node"><title>Mu</title>
<g id="a_node3"><a xlink:href="../type/Mu.html" xlink:title="Mu">
<ellipse fill="none" stroke="#000000" cx="213" cy="-306" rx="27" ry="18"/>
<text text-anchor="middle" x="213" y="-300.4" font-family="Times,serif" font-size="14.00" fill="#000000">Mu</text>
</a>
</g>
</g>
<!-- Any -->
<g id="node4" class="node"><title>Any</title>
<g id="a_node4"><a xlink:href="../type/Any.html" xlink:title="Any">
<ellipse fill="none" stroke="#000000" cx="213" cy="-234" rx="27.8358" ry="18"/>
<text text-anchor="middle" x="213" y="-228.4" font-family="Times,serif" font-size="14.00" fill="#000000">Any</text>
</a>
</g>
</g>
<!-- Any&#45;&gt;Mu -->
<g id="edge1" class="edge"><title>Any&#45;&gt;Mu</title>
<path fill="none" stroke="#000000" d="M213,-252.303C213,-260.017 213,-269.288 213,-277.888"/>
<polygon fill="#000000" stroke="#000000" points="209.5,-277.896 213,-287.896 216.5,-277.896 209.5,-277.896"/>
</g>
<!-- Cool -->
<g id="node5" class="node"><title>Cool</title>
<g id="a_node5"><a xlink:href="../type/Cool.html" xlink:title="Cool">
<ellipse fill="none" stroke="#000000" cx="213" cy="-162" rx="29.6362" ry="18"/>
<text text-anchor="middle" x="213" y="-156.4" font-family="Times,serif" font-size="14.00" fill="#000000">Cool</text>
</a>
</g>
</g>
<!-- Cool&#45;&gt;Any -->
<g id="edge2" class="edge"><title>Cool&#45;&gt;Any</title>
<path fill="none" stroke="#000000" d="M213,-180.303C213,-188.017 213,-197.288 213,-205.888"/>
<polygon fill="#000000" stroke="#000000" points="209.5,-205.896 213,-215.896 216.5,-205.896 209.5,-205.896"/>
</g>
<!-- Complex -->
<g id="node6" class="node"><title>Complex</title>
<g id="a_node6"><a xlink:href="../type/Complex.html" xlink:title="Complex">
<ellipse fill="none" stroke="#000000" cx="46" cy="-90" rx="46.3875" ry="18"/>
<text text-anchor="middle" x="46" y="-84.4" font-family="Times,serif" font-size="14.00" fill="#000000">Complex</text>
</a>
</g>
</g>
<!-- Complex&#45;&gt;Numeric -->
<g id="edge11" class="edge"><title>Complex&#45;&gt;Numeric</title>
<path fill="none" stroke="#6666ff" d="M67.7135,-106.098C104.232,-131.49 174,-180 174,-180 174,-180 236.963,-202.396 281.03,-218.071"/>
<polygon fill="#6666ff" stroke="#6666ff" points="280.075,-221.446 290.669,-221.5 282.421,-214.851 280.075,-221.446"/>
</g>
<!-- Complex&#45;&gt;Cool -->
<g id="edge3" class="edge"><title>Complex&#45;&gt;Cool</title>
<path fill="none" stroke="#000000" d="M76.2424,-103.676C105.588,-115.977 149.997,-134.591 180.186,-147.246"/>
<polygon fill="#000000" stroke="#000000" points="178.875,-150.491 189.451,-151.129 181.581,-144.035 178.875,-150.491"/>
</g>
<!-- Int -->
<g id="node7" class="node"><title>Int</title>
<g id="a_node7"><a xlink:href="../type/Int.html" xlink:title="Int">
<ellipse fill="none" stroke="#000000" cx="213" cy="-90" rx="27" ry="18"/>
<text text-anchor="middle" x="213" y="-84.4" font-family="Times,serif" font-size="14.00" fill="#000000">Int</text>
</a>
</g>
</g>
<!-- Int&#45;&gt;Real -->
<g id="edge12" class="edge"><title>Int&#45;&gt;Real</title>
<path fill="none" stroke="#6666ff" d="M234.357,-101.085C242.109,-104.746 249,-108 249,-108 249,-108 297.095,-130.558 330.531,-146.24"/>
<polygon fill="#6666ff" stroke="#6666ff" points="329.404,-149.578 339.944,-150.655 332.377,-143.24 329.404,-149.578"/>
</g>
<!-- Int&#45;&gt;Cool -->
<g id="edge4" class="edge"><title>Int&#45;&gt;Cool</title>
<path fill="none" stroke="#000000" d="M213,-108.303C213,-116.017 213,-125.288 213,-133.888"/>
<polygon fill="#000000" stroke="#000000" points="209.5,-133.896 213,-143.896 216.5,-133.896 209.5,-133.896"/>
</g>
<!-- Num -->
<g id="node8" class="node"><title>Num</title>
<g id="a_node8"><a xlink:href="../type/Num.html" xlink:title="Num">
<ellipse fill="none" stroke="#000000" cx="288" cy="-90" rx="30.2015" ry="18"/>
<text text-anchor="middle" x="288" y="-84.4" font-family="Times,serif" font-size="14.00" fill="#000000">Num</text>
</a>
</g>
</g>
<!-- Num&#45;&gt;Real -->
<g id="edge13" class="edge"><title>Num&#45;&gt;Real</title>
<path fill="none" stroke="#6666ff" d="M303.333,-105.504C313.751,-115.359 327.708,-128.561 339.395,-139.617"/>
<polygon fill="#6666ff" stroke="#6666ff" points="337.017,-142.185 346.687,-146.515 341.827,-137.1 337.017,-142.185"/>
</g>
<!-- Num&#45;&gt;Cool -->
<g id="edge5" class="edge"><title>Num&#45;&gt;Cool</title>
<path fill="none" stroke="#000000" d="M272.46,-105.504C261.901,-115.359 247.756,-128.561 235.911,-139.617"/>
<polygon fill="#000000" stroke="#000000" points="233.443,-137.133 228.52,-146.515 238.219,-142.25 233.443,-137.133"/>
</g>
<!-- Rational -->
<g id="node9" class="node"><title>Rational</title>
<g id="a_node9"><a xlink:href="../type/Rational.html" xlink:title="Rational">
<ellipse fill="none" stroke="#6666ff" cx="582" cy="-90" rx="43.5134" ry="18"/>
<text text-anchor="middle" x="582" y="-84.4" font-family="Times,serif" font-size="14.00" fill="#6666ff">Rational</text>
</a>
</g>
</g>
<!-- Rational&#45;&gt;Real -->
<g id="edge14" class="edge"><title>Rational&#45;&gt;Real</title>
<path fill="none" stroke="#6666ff" d="M548.735,-101.67C538.087,-105.085 529,-108 529,-108 529,-108 445.492,-134.503 396.58,-150.026"/>
<polygon fill="#6666ff" stroke="#6666ff" points="395.474,-146.704 387.002,-153.065 397.592,-153.376 395.474,-146.704"/>
</g>
<!-- Duration -->
<g id="node10" class="node"><title>Duration</title>
<g id="a_node10"><a xlink:href="../type/Duration.html" xlink:title="Duration">
<ellipse fill="none" stroke="#000000" cx="382" cy="-90" rx="45.2283" ry="18"/>
<text text-anchor="middle" x="382" y="-84.4" font-family="Times,serif" font-size="14.00" fill="#000000">Duration</text>
</a>
</g>
</g>
<!-- Duration&#45;&gt;Real -->
<g id="edge15" class="edge"><title>Duration&#45;&gt;Real</title>
<path fill="none" stroke="#6666ff" d="M377.159,-107.945C374.898,-115.855 372.154,-125.46 369.625,-134.312"/>
<polygon fill="#6666ff" stroke="#6666ff" points="366.179,-133.634 366.797,-144.211 372.909,-135.557 366.179,-133.634"/>
</g>
<!-- Duration&#45;&gt;Cool -->
<g id="edge6" class="edge"><title>Duration&#45;&gt;Cool</title>
<path fill="none" stroke="#000000" d="M351.786,-103.515C322.059,-115.828 276.786,-134.58 246.099,-147.29"/>
<polygon fill="#000000" stroke="#000000" points="244.586,-144.129 236.686,-151.189 247.265,-150.596 244.586,-144.129"/>
</g>
<!-- Instant -->
<g id="node11" class="node"><title>Instant</title>
<g id="a_node11"><a xlink:href="../type/Instant.html" xlink:title="Instant">
<ellipse fill="none" stroke="#000000" cx="483" cy="-90" rx="37.1401" ry="18"/>
<text text-anchor="middle" x="483" y="-84.4" font-family="Times,serif" font-size="14.00" fill="#000000">Instant</text>
</a>
</g>
</g>
<!-- Instant&#45;&gt;Real -->
<g id="edge16" class="edge"><title>Instant&#45;&gt;Real</title>
<path fill="none" stroke="#6666ff" d="M459.956,-104.331C440.484,-115.596 412.478,-131.798 391.395,-143.995"/>
<polygon fill="#6666ff" stroke="#6666ff" points="389.443,-141.08 382.54,-149.117 392.948,-147.139 389.443,-141.08"/>
</g>
<!-- Instant&#45;&gt;Cool -->
<g id="edge7" class="edge"><title>Instant&#45;&gt;Cool</title>
<path fill="none" stroke="#000000" d="M454.037,-101.476C444.365,-104.974 436,-108 436,-108 436,-108 313.257,-137.172 249.897,-152.231"/>
<polygon fill="#000000" stroke="#000000" points="248.819,-148.889 239.899,-154.607 250.437,-155.7 248.819,-148.889"/>
</g>
<!-- Rat -->
<g id="node12" class="node"><title>Rat</title>
<g id="a_node12"><a xlink:href="../type/Rat.html" xlink:title="Rat">
<ellipse fill="none" stroke="#000000" cx="310" cy="-18" rx="27" ry="18"/>
<text text-anchor="middle" x="310" y="-12.4" font-family="Times,serif" font-size="14.00" fill="#000000">Rat</text>
</a>
</g>
</g>
<!-- Rat&#45;&gt;Cool -->
<g id="edge8" class="edge"><title>Rat&#45;&gt;Cool</title>
<path fill="none" stroke="#000000" d="M286.216,-26.5936C240.316,-41.2486 144,-72 144,-72 144,-72 144,-108 144,-108 144,-108 167.571,-126.105 187.16,-141.152"/>
<polygon fill="#000000" stroke="#000000" points="185.168,-144.035 195.231,-147.351 189.432,-138.484 185.168,-144.035"/>
</g>
<!-- Rat&#45;&gt;Rational -->
<g id="edge17" class="edge"><title>Rat&#45;&gt;Rational</title>
<path fill="none" stroke="#6666ff" d="M335.122,-25.0798C392.646,-39.0012 529,-72 529,-72 529,-72 533.102,-73.3157 539.023,-75.2151"/>
<polygon fill="#6666ff" stroke="#6666ff" points="538.144,-78.6086 548.735,-78.3302 540.282,-71.9431 538.144,-78.6086"/>
</g>
<!-- FatRat -->
<g id="node13" class="node"><title>FatRat</title>
<g id="a_node13"><a xlink:href="../type/FatRat.html" xlink:title="FatRat">
<ellipse fill="none" stroke="#000000" cx="487" cy="-18" rx="36.5748" ry="18"/>
<text text-anchor="middle" x="487" y="-12.4" font-family="Times,serif" font-size="14.00" fill="#000000">FatRat</text>
</a>
</g>
</g>
<!-- FatRat&#45;&gt;Cool -->
<g id="edge9" class="edge"><title>FatRat&#45;&gt;Cool</title>
<path fill="none" stroke="#000000" d="M453.234,-24.7728C372.889,-38.5093 177,-72 177,-72 177,-72 177,-108 177,-108 177,-108 187.009,-122.735 196.472,-136.667"/>
<polygon fill="#000000" stroke="#000000" points="193.685,-138.793 202.199,-145.098 199.475,-134.859 193.685,-138.793"/>
</g>
<!-- FatRat&#45;&gt;Rational -->
<g id="edge18" class="edge"><title>FatRat&#45;&gt;Rational</title>
<path fill="none" stroke="#6666ff" d="M506.684,-33.504C520.132,-43.4129 538.172,-56.7057 553.225,-67.7975"/>
<polygon fill="#6666ff" stroke="#6666ff" points="551.559,-70.9172 561.686,-74.0316 555.711,-65.2818 551.559,-70.9172"/>
</g>
</g>
</svg>
